<svg width="194" height="127" viewBox="0 0 194 127" fill="none" xmlns="http://www.w3.org/2000/svg">
<path d="M141.045 81.4716C143.321 81.6448 145.593 81.8345 147.865 82.0365V42.0041H141.045V81.4716ZM31.3631 66.6156L22.4817 42H16V85.4959C18.2678 85.1743 20.5397 84.865 22.8198 84.5682V60.9132L30.7158 83.5951C33.198 83.3065 35.6884 83.0343 38.1788 82.7787V42H31.359V66.6156H31.3631ZM44.7389 82.1478C51.0227 81.5788 57.3353 81.1047 63.6768 80.7418V74.0251C59.6237 74.2601 55.5829 74.5364 51.5546 74.8538V64.6819C54.1975 64.6571 57.6775 64.5747 60.7617 64.6118V57.895C58.3002 57.8909 54.3377 57.928 51.5546 57.9651V48.7827H63.6768V42.0041H44.7389V82.1478ZM68.0474 48.7827H75.1848V80.1975C77.4525 80.111 79.7285 80.0409 82.0046 79.9831V48.7827H89.1419V42.0041H68.0516V48.7827H68.0474ZM93.5084 79.7976H100.328V64.286H109.568V57.5693H100.328V48.7827H112.545V42.0041H93.5125V79.7976H93.5084ZM177.911 42.0041H170.423L165.487 53.4461L161.051 42.0041H153.674L161.599 62.4512L152.945 82.5107C155.34 82.7457 157.728 82.9931 160.111 83.257L165.145 71.5924L170.13 84.4486C172.728 84.7826 175.317 85.1289 177.903 85.5L177.915 85.4959L169.033 62.5873L177.911 42.0041ZM123.727 42H116.908V80.1316C123.105 80.346 129.273 80.6594 135.421 81.0676V74.3508C131.533 74.0911 127.636 73.8725 123.727 73.6911V42Z" fill="#050607"/>
</svg>
